<svg xmlns:xlink="http://www.w3.org/1999/xlink" xmlns="http://www.w3.org/2000/svg" contentScriptType="text/ecmascript" zoomAndPan="magnify" contentStyleType="text/css" preserveAspectRatio="xMidYMid meet" version="1.1" viewBox="-428.71 -196.19 708.95 325.93">
    <g id="edges">
        <path fill="none" stroke-width="1.0" d="M -97.382935,20.691980 C -112.694588,29.700249 -149.174469,20.245165 -158.182739,4.933510" class="id_2 id_1" stroke-opacity="1.0" stroke="#d27cce"/>
        <path fill="none" stroke-width="1.0" d="M -17.308514,-2.054564 C -44.085747,27.517895 -128.610275,31.710739 -158.182739,4.933510" class="id_3 id_1" stroke-opacity="1.0" stroke="#d27cce"/>
        <path fill="none" stroke-width="1.0" d="M -17.308514,-2.054564 C -28.774086,18.509628 -76.818741,32.157555 -97.382935,20.691980" class="id_3 id_2" stroke-opacity="1.0" stroke="#d27cce"/>
        <path fill="none" stroke-width="1.0" d="M -117.100487,56.906754 C -135.711594,54.728554 -160.360947,23.544609 -158.182739,4.933510" class="id_4 id_1" stroke-opacity="1.0" stroke="#d27cce"/>
        <path fill="none" stroke-width="1.0" d="M -117.100487,56.906754 C -120.399933,45.720287 -108.569405,23.991426 -97.382935,20.691980" class="id_4 id_2" stroke-opacity="1.0" stroke="#d27cce"/>
        <path fill="none" stroke-width="1.0" d="M -117.100487,56.906754 C -108.934357,25.156094 -49.059174,-10.220697 -17.308514,-2.054564" class="id_4 id_3" stroke-opacity="1.0" stroke="#d27cce"/>
        <path fill="none" stroke-width="1.0" d="M -280.428772,-0.526542 C -254.887558,-23.883739 -181.539932,-20.607708 -158.182739,4.933510" class="id_5 id_1" stroke-opacity="1.0" stroke="#6999d4"/>
        <path fill="none" stroke-width="1.0" d="M -318.293610,-54.457890 C -274.393127,-74.601784 -178.326630,-38.966946 -158.182739,4.933510" class="id_6 id_1" stroke-opacity="1.0" stroke="#6999d4"/>
        <path fill="none" stroke-width="1.0" d="M -328.272491,-11.237123 C -291.020416,-42.020943 -188.966553,-32.318565 -158.182739,4.933510" class="id_7 id_1" stroke-opacity="1.0" stroke="#6999d4"/>
        <path fill="none" stroke-width="1.0" d="M -328.272491,-11.237123 C -316.561615,-18.663752 -287.855408,-12.237404 -280.428772,-0.526542" class="id_7 id_5" stroke-opacity="1.0" stroke="#00b7da"/>
        <path fill="none" stroke-width="1.0" d="M -328.272491,-11.237123 C -334.920868,-21.877052 -328.933563,-47.809513 -318.293610,-54.457890" class="id_7 id_6" stroke-opacity="1.0" stroke="#00b7da"/>
        <path fill="none" stroke-width="1.0" d="M -113.588028,-27.412027 C -116.037865,-12.023978 -142.794693,7.383345 -158.182739,4.933510" class="id_8 id_1" stroke-opacity="1.0" stroke="#d27cce"/>
        <path fill="none" stroke-width="1.0" d="M -113.588028,-27.412027 C -100.726204,-21.032244 -91.003151,7.830161 -97.382935,20.691980" class="id_8 id_2" stroke-opacity="1.0" stroke="#d27cce"/>
        <path fill="none" stroke-width="1.0" d="M -113.588028,-27.412027 C -89.260628,-41.596436 -31.492922,-26.381960 -17.308514,-2.054564" class="id_8 id_3" stroke-opacity="1.0" stroke="#d27cce"/>
        <path fill="none" stroke-width="1.0" d="M -113.588028,-27.412027 C -97.426765,-9.845779 -99.534241,40.745491 -117.100487,56.906754" class="id_8 id_4" stroke-opacity="1.0" stroke="#d27cce"/>
        <path fill="none" stroke-width="1.0" d="M 12.204420,15.342656 C -23.954844,47.338261 -126.187134,41.092773 -158.182739,4.933510" class="id_9 id_1" stroke-opacity="1.0" stroke="#9d9482"/>
        <path fill="none" stroke-width="1.0" d="M 12.204420,15.342656 C 2.822389,17.765799 -14.885371,7.327467 -17.308514,-2.054564" class="id_9 id_3" stroke-opacity="1.0" stroke="#9d9482"/>
        <path fill="none" stroke-width="1.0" d="M 56.179348,102.028931 C 20.665073,95.909805 -23.427639,33.459709 -17.308514,-2.054564" class="id_10 id_3" stroke-opacity="1.0" stroke="#d27cce"/>
        <path fill="none" stroke-width="1.0" d="M -268.725403,-62.928093 C -233.044540,-71.464310 -166.718948,-30.747345 -158.182739,4.933510" class="id_11 id_1" stroke-opacity="1.0" stroke="#6999d4"/>
        <path fill="none" stroke-width="1.0" d="M -268.725403,-62.928093 C -258.585754,-48.107109 -265.607788,-10.666180 -280.428772,-0.526542" class="id_11 id_5" stroke-opacity="1.0" stroke="#00b7da"/>
        <path fill="none" stroke-width="1.0" d="M -268.725403,-62.928093 C -276.945007,-51.320412 -306.685944,-46.238289 -318.293610,-54.457890" class="id_11 id_6" stroke-opacity="1.0" stroke="#00b7da"/>
        <path fill="none" stroke-width="1.0" d="M -275.454926,93.634949 C -269.740784,52.440224 -199.377472,-0.780640 -158.182739,4.933510" class="id_12 id_1" stroke-opacity="1.0" stroke="#d27cce"/>
        <path fill="none" stroke-width="1.0" d="M -186.073334,119.242043 C -203.356918,90.802216 -186.622574,22.217098 -158.182739,4.933510" class="id_13 id_1" stroke-opacity="1.0" stroke="#d27cce"/>
        <path fill="none" stroke-width="1.0" d="M -186.073334,119.242043 C -184.745819,92.980415 -143.362106,55.579239 -117.100487,56.906754" class="id_13 id_4" stroke-opacity="1.0" stroke="#d27cce"/>
        <path fill="none" stroke-width="1.0" d="M -45.458530,28.795980 C -72.775864,46.568329 -140.410385,32.250847 -158.182739,4.933510" class="id_14 id_1" stroke-opacity="1.0" stroke="#d27cce"/>
        <path fill="none" stroke-width="1.0" d="M -45.458530,28.795980 C -57.464211,37.560062 -88.618851,32.697662 -97.382935,20.691980" class="id_14 id_2" stroke-opacity="1.0" stroke="#d27cce"/>
        <path fill="none" stroke-width="1.0" d="M -45.458530,28.795980 C -45.998634,16.995869 -29.108625,-1.514458 -17.308514,-2.054564" class="id_14 id_3" stroke-opacity="1.0" stroke="#d27cce"/>
        <path fill="none" stroke-width="1.0" d="M -45.458530,28.795980 C -54.164768,48.746529 -97.149940,65.612991 -117.100487,56.906754" class="id_14 id_4" stroke-opacity="1.0" stroke="#d27cce"/>
        <path fill="none" stroke-width="1.0" d="M -418.211548,-55.669212 C -397.985687,-75.410538 -338.034912,-74.683739 -318.293610,-54.457890" class="id_17 id_6" stroke-opacity="1.0" stroke="#00b7da"/>
        <path fill="none" stroke-width="1.0" d="M -418.211548,-55.669212 C -391.337311,-64.770607 -337.373901,-38.111355 -328.272491,-11.237123" class="id_17 id_7" stroke-opacity="1.0" stroke="#00b7da"/>
        <path fill="none" stroke-width="1.0" d="M -186.391098,-56.416615 C -168.479401,-49.788261 -151.554398,-12.978188 -158.182739,4.933510" class="id_18 id_1" stroke-opacity="1.0" stroke="#d27cce"/>
        <path fill="none" stroke-width="1.0" d="M -186.391098,-56.416615 C -153.167740,-58.796532 -99.762848,-12.531374 -97.382935,20.691980" class="id_18 id_2" stroke-opacity="1.0" stroke="#d27cce"/>
        <path fill="none" stroke-width="1.0" d="M -36.066135,66.258698 C -72.754494,78.416977 -146.024445,41.621868 -158.182739,4.933510" class="id_20 id_1" stroke-opacity="1.0" stroke="#d27cce"/>
        <path fill="none" stroke-width="1.0" d="M -36.066135,66.258698 C -57.442837,69.408714 -94.232918,42.068684 -97.382935,20.691980" class="id_20 id_2" stroke-opacity="1.0" stroke="#d27cce"/>
        <path fill="none" stroke-width="1.0" d="M -198.204239,61.218948 C -201.457031,41.957561 -177.444122,8.186298 -158.182739,4.933510" class="id_22 id_1" stroke-opacity="1.0" stroke="#d27cce"/>
        <path fill="none" stroke-width="1.0" d="M -198.204239,61.218948 C -186.145370,32.949295 -125.652588,8.633114 -97.382935,20.691980" class="id_22 id_2" stroke-opacity="1.0" stroke="#d27cce"/>
        <path fill="none" stroke-width="1.0" d="M 117.690094,-171.421432 C 143.458908,-161.896851 167.825256,-108.956779 158.300674,-83.187973" class="id_26 id_24" stroke-opacity="1.0" stroke="#ff743e"/>
        <path fill="none" stroke-width="1.0" d="M 117.690094,-171.421432 C 104.518135,-163.739792 73.237747,-171.975266 65.556114,-185.147232" class="id_26 id_25" stroke-opacity="1.0" stroke="#ff743e"/>
        <path fill="none" stroke-width="1.0" d="M 82.652428,-91.483574 C 80.546043,-53.605583 20.569475,0.051823 -17.308514,-2.054564" class="id_28 id_3" stroke-opacity="1.0" stroke="#e87886"/>
        <path fill="none" stroke-width="1.0" d="M 82.652428,-91.483574 C 99.441193,-104.954102 144.830139,-99.976738 158.300674,-83.187973" class="id_28 id_24" stroke-opacity="1.0" stroke="#ff743e"/>
        <path fill="none" stroke-width="1.0" d="M 82.652428,-91.483574 C 60.500427,-106.797043 50.242645,-162.995239 65.556114,-185.147232" class="id_28 id_25" stroke-opacity="1.0" stroke="#ff743e"/>
        <path fill="none" stroke-width="1.0" d="M 60.040100,-38.252239 C 51.809914,-15.542979 5.400745,6.175624 -17.308514,-2.054564" class="id_29 id_3" stroke-opacity="1.0" stroke="#e87886"/>
        <path fill="none" stroke-width="1.0" d="M 213.072815,-19.386047 C 189.358002,-21.192001 156.494705,-59.473160 158.300674,-83.187973" class="id_30 id_24" stroke-opacity="1.0" stroke="#b3903a"/>
        <path fill="none" stroke-width="1.0" d="M 213.072815,-19.386047 C 226.970474,-28.053146 260.817596,-20.207308 269.484711,-6.309649" class="id_30 id_27" stroke-opacity="1.0" stroke="#68ad36"/>
        <path fill="none" stroke-width="1.0" d="M 41.908993,47.488739 C 8.691252,69.987778 -74.883896,53.909721 -97.382935,20.691980" class="id_31 id_2" stroke-opacity="1.0" stroke="#9d9482"/>
        <path fill="none" stroke-width="1.0" d="M 41.908993,47.488739 C 29.538862,47.000435 11.716120,27.712788 12.204420,15.342656" class="id_31 id_9" stroke-opacity="1.0" stroke="#68ad36"/>
        <path fill="none" stroke-width="1.0" d="M 28.210293,-76.375969 C 7.193581,-22.835461 -104.642227,25.950222 -158.182739,4.933510" class="id_32 id_1" stroke-opacity="1.0" stroke="#e87886"/>
        <path fill="none" stroke-width="1.0" d="M 28.210293,-76.375969 C 13.925205,-105.599380 36.332695,-170.862137 65.556114,-185.147232" class="id_32 id_25" stroke-opacity="1.0" stroke="#ff743e"/>
        <path fill="none" stroke-width="1.0" d="M 28.210293,-76.375969 C 27.097158,-113.281021 80.785042,-170.308289 117.690094,-171.421432" class="id_32 id_26" stroke-opacity="1.0" stroke="#ff743e"/>
        <path fill="none" stroke-width="1.0" d="M 28.210293,-76.375969 C 42.201004,-75.117180 61.298882,-52.242947 60.040100,-38.252239" class="id_32 id_29" stroke-opacity="1.0" stroke="#ff743e"/>
        <path fill="none" stroke-width="1.0" d="M 143.491379,6.739406 C 109.572601,37.140594 13.092673,31.864210 -17.308514,-2.054564" class="id_33 id_3" stroke-opacity="1.0" stroke="#9d9482"/>
        <path fill="none" stroke-width="1.0" d="M 143.491379,6.739406 C 118.954636,34.717449 40.182465,39.879398 12.204420,15.342656" class="id_33 id_9" stroke-opacity="1.0" stroke="#68ad36"/>
        <path fill="none" stroke-width="1.0" d="M 143.491379,6.739406 C 171.460449,14.554221 201.691833,68.230049 193.877029,96.199127" class="id_33 id_15" stroke-opacity="1.0" stroke="#68ad36"/>
        <path fill="none" stroke-width="1.0" d="M 143.491379,6.739406 C 164.346176,-5.117620 213.413940,8.379049 225.270966,29.233858" class="id_33 id_16" stroke-opacity="1.0" stroke="#68ad36"/>
        <path fill="none" stroke-width="1.0" d="M 143.491379,6.739406 C 143.872589,-20.260853 184.944824,-60.189415 211.945084,-59.808189" class="id_33 id_19" stroke-opacity="1.0" stroke="#68ad36"/>
        <path fill="none" stroke-width="1.0" d="M 143.491379,6.739406 C 167.304932,25.594978 174.741898,89.598663 155.886322,113.412209" class="id_33 id_21" stroke-opacity="1.0" stroke="#68ad36"/>
        <path fill="none" stroke-width="1.0" d="M 143.491379,6.739406 C 171.742142,3.456078 219.043289,40.907238 222.326614,69.158005" class="id_33 id_23" stroke-opacity="1.0" stroke="#68ad36"/>
        <path fill="none" stroke-width="1.0" d="M 143.491379,6.739406 C 128.467758,-14.207930 137.353348,-68.164360 158.300674,-83.187973" class="id_33 id_24" stroke-opacity="1.0" stroke="#b3903a"/>
        <path fill="none" stroke-width="1.0" d="M 143.491379,6.739406 C 152.182571,-12.401973 193.931427,-28.077244 213.072815,-19.386047" class="id_33 id_30" stroke-opacity="1.0" stroke="#68ad36"/>
        <path fill="none" stroke-width="1.0" d="M 143.491379,6.739406 C 131.324768,35.205750 70.375336,59.655350 41.908993,47.488739" class="id_33 id_31" stroke-opacity="1.0" stroke="#68ad36"/>
        <path fill="none" stroke-width="1.0" d="M 143.491379,6.739406 C 103.812088,13.172549 34.643436,-36.696678 28.210293,-76.375969" class="id_33 id_32" stroke-opacity="1.0" stroke="#b3903a"/>
        <path fill="none" stroke-width="1.0" d="M 105.351570,18.640949 C 86.062477,36.610718 30.174191,34.631744 12.204420,15.342656" class="id_34 id_9" stroke-opacity="1.0" stroke="#68ad36"/>
        <path fill="none" stroke-width="1.0" d="M 105.351570,18.640949 C 112.194725,45.152992 82.691391,95.185776 56.179348,102.028931" class="id_34 id_10" stroke-opacity="1.0" stroke="#9d9482"/>
        <path fill="none" stroke-width="1.0" d="M 105.351570,18.640949 C 77.220558,50.833977 -13.265505,56.926994 -45.458530,28.795980" class="id_34 id_14" stroke-opacity="1.0" stroke="#9d9482"/>
        <path fill="none" stroke-width="1.0" d="M 105.351570,18.640949 C 138.568298,16.447495 191.683578,62.982399 193.877029,96.199127" class="id_34 id_15" stroke-opacity="1.0" stroke="#68ad36"/>
        <path fill="none" stroke-width="1.0" d="M 105.351570,18.640949 C 131.454025,-3.224348 203.405655,3.131397 225.270966,29.233858" class="id_34 id_16" stroke-opacity="1.0" stroke="#68ad36"/>
        <path fill="none" stroke-width="1.0" d="M 105.351570,18.640949 C 110.980446,-18.367582 174.936539,-65.437065 211.945084,-59.808189" class="id_34 id_19" stroke-opacity="1.0" stroke="#68ad36"/>
        <path fill="none" stroke-width="1.0" d="M 105.351570,18.640949 C 86.591583,56.448036 1.740954,85.018692 -36.066135,66.258698" class="id_34 id_20" stroke-opacity="1.0" stroke="#9d9482"/>
        <path fill="none" stroke-width="1.0" d="M 105.351570,18.640949 C 134.412766,27.488249 164.733627,84.351013 155.886322,113.412209" class="id_34 id_21" stroke-opacity="1.0" stroke="#68ad36"/>
        <path fill="none" stroke-width="1.0" d="M 105.351570,18.640949 C 138.849991,5.349352 209.035019,35.659584 222.326614,69.158005" class="id_34 id_23" stroke-opacity="1.0" stroke="#68ad36"/>
        <path fill="none" stroke-width="1.0" d="M 105.351570,18.640949 C 95.575607,-12.314656 127.345062,-73.412010 158.300674,-83.187973" class="id_34 id_24" stroke-opacity="1.0" stroke="#b3903a"/>
        <path fill="none" stroke-width="1.0" d="M 105.351570,18.640949 C 133.188080,-19.175800 231.667969,-34.146160 269.484711,-6.309649" class="id_34 id_27" stroke-opacity="1.0" stroke="#68ad36"/>
        <path fill="none" stroke-width="1.0" d="M 105.351570,18.640949 C 78.786835,1.155872 65.167343,-64.918839 82.652428,-91.483574" class="id_34 id_28" stroke-opacity="1.0" stroke="#b3903a"/>
        <path fill="none" stroke-width="1.0" d="M 105.351570,18.640949 C 84.910637,16.324606 57.723755,-17.811308 60.040100,-38.252239" class="id_34 id_29" stroke-opacity="1.0" stroke="#b3903a"/>
        <path fill="none" stroke-width="1.0" d="M 105.351570,18.640949 C 119.290421,-10.508701 183.923172,-33.324898 213.072815,-19.386047" class="id_34 id_30" stroke-opacity="1.0" stroke="#68ad36"/>
        <path fill="none" stroke-width="1.0" d="M 105.351570,18.640949 C 98.432617,37.099022 60.367065,54.407696 41.908993,47.488739" class="id_34 id_31" stroke-opacity="1.0" stroke="#68ad36"/>
        <path fill="none" stroke-width="1.0" d="M 105.351570,18.640949 C 70.919930,15.065820 24.635164,-41.944324 28.210293,-76.375969" class="id_34 id_32" stroke-opacity="1.0" stroke="#b3903a"/>
        <path fill="none" stroke-width="1.0" d="M 105.351570,18.640949 C 110.599220,8.632679 133.483109,1.491753 143.491379,6.739406" class="id_34 id_33" stroke-opacity="1.0" stroke="#68ad36"/>
    </g>
    <g id="nodes">
        <circle fill-opacity="1.0" fill="#d27cce" r="15.0" cx="-158.18274" class="id_1" cy="4.93351" stroke="#000000" stroke-opacity="1.0" stroke-width="1.0"/>
        <circle fill-opacity="1.0" fill="#d27cce" r="12.139759" cx="-97.382935" class="id_2" cy="20.69198" stroke="#000000" stroke-opacity="1.0" stroke-width="1.0"/>
        <circle fill-opacity="1.0" fill="#d27cce" r="11.417271" cx="-17.308514" class="id_3" cy="-2.054564" stroke="#000000" stroke-opacity="1.0" stroke-width="1.0"/>
        <circle fill-opacity="1.0" fill="#d27cce" r="10.177607" cx="-117.10049" class="id_4" cy="56.906754" stroke="#000000" stroke-opacity="1.0" stroke-width="1.0"/>
        <circle fill-opacity="1.0" fill="#00b7da" r="10.139322" cx="-280.42877" class="id_5" cy="-0.5265423" stroke="#000000" stroke-opacity="1.0" stroke-width="1.0"/>
        <circle fill-opacity="1.0" fill="#00b7da" r="10.177607" cx="-318.2936" class="id_6" cy="-54.45789" stroke="#000000" stroke-opacity="1.0" stroke-width="1.0"/>
        <circle fill-opacity="1.0" fill="#00b7da" r="10.038283" cx="-328.2725" class="id_7" cy="-11.2371235" stroke="#000000" stroke-opacity="1.0" stroke-width="1.0"/>
        <circle fill-opacity="1.0" fill="#d27cce" r="10.0" cx="-113.58803" class="id_8" cy="-27.412027" stroke="#000000" stroke-opacity="1.0" stroke-width="1.0"/>
        <circle fill-opacity="1.0" fill="#68ad36" r="10.3538065" cx="12.20442" class="id_9" cy="15.342656" stroke="#000000" stroke-opacity="1.0" stroke-width="1.0"/>
        <circle fill-opacity="1.0" fill="#d27cce" r="10.038283" cx="56.179348" class="id_10" cy="102.02893" stroke="#000000" stroke-opacity="1.0" stroke-width="1.0"/>
        <circle fill-opacity="1.0" fill="#00b7da" r="10.0" cx="-268.7254" class="id_11" cy="-62.928093" stroke="#000000" stroke-opacity="1.0" stroke-width="1.0"/>
        <circle fill-opacity="1.0" fill="#d27cce" r="10.0" cx="-275.45493" class="id_12" cy="93.63495" stroke="#000000" stroke-opacity="1.0" stroke-width="1.0"/>
        <circle fill-opacity="1.0" fill="#d27cce" r="10.0" cx="-186.07333" class="id_13" cy="119.24204" stroke="#000000" stroke-opacity="1.0" stroke-width="1.0"/>
        <circle fill-opacity="1.0" fill="#d27cce" r="10.038283" cx="-45.45853" class="id_14" cy="28.79598" stroke="#000000" stroke-opacity="1.0" stroke-width="1.0"/>
        <circle fill-opacity="1.0" fill="#68ad36" r="10.139322" cx="193.87703" class="id_15" cy="96.19913" stroke="#000000" stroke-opacity="1.0" stroke-width="1.0"/>
        <circle fill-opacity="1.0" fill="#68ad36" r="10.139322" cx="225.27097" class="id_16" cy="29.233858" stroke="#000000" stroke-opacity="1.0" stroke-width="1.0"/>
        <circle fill-opacity="1.0" fill="#00b7da" r="10.0" cx="-418.21155" class="id_17" cy="-55.669212" stroke="#000000" stroke-opacity="1.0" stroke-width="1.0"/>
        <circle fill-opacity="1.0" fill="#d27cce" r="10.0" cx="-186.3911" class="id_18" cy="-56.416615" stroke="#000000" stroke-opacity="1.0" stroke-width="1.0"/>
        <circle fill-opacity="1.0" fill="#68ad36" r="10.139322" cx="211.94508" class="id_19" cy="-59.80819" stroke="#000000" stroke-opacity="1.0" stroke-width="1.0"/>
        <circle fill-opacity="1.0" fill="#d27cce" r="10.038283" cx="-36.066135" class="id_20" cy="66.2587" stroke="#000000" stroke-opacity="1.0" stroke-width="1.0"/>
        <circle fill-opacity="1.0" fill="#68ad36" r="10.139322" cx="155.88632" class="id_21" cy="113.41221" stroke="#000000" stroke-opacity="1.0" stroke-width="1.0"/>
        <circle fill-opacity="1.0" fill="#d27cce" r="10.0" cx="-198.20424" class="id_22" cy="61.21895" stroke="#000000" stroke-opacity="1.0" stroke-width="1.0"/>
        <circle fill-opacity="1.0" fill="#68ad36" r="10.139322" cx="222.32661" class="id_23" cy="69.158005" stroke="#000000" stroke-opacity="1.0" stroke-width="1.0"/>
        <circle fill-opacity="1.0" fill="#ff743e" r="10.684164" cx="158.30067" class="id_24" cy="-83.18797" stroke="#000000" stroke-opacity="1.0" stroke-width="1.0"/>
        <circle fill-opacity="1.0" fill="#ff743e" r="10.544842" cx="65.556114" class="id_25" cy="-185.14723" stroke="#000000" stroke-opacity="1.0" stroke-width="1.0"/>
        <circle fill-opacity="1.0" fill="#ff743e" r="10.214484" cx="117.690094" class="id_26" cy="-171.42143" stroke="#000000" stroke-opacity="1.0" stroke-width="1.0"/>
        <circle fill-opacity="1.0" fill="#68ad36" r="10.252768" cx="269.4847" class="id_27" cy="-6.3096495" stroke="#000000" stroke-opacity="1.0" stroke-width="1.0"/>
        <circle fill-opacity="1.0" fill="#ff743e" r="10.038283" cx="82.65243" class="id_28" cy="-91.483574" stroke="#000000" stroke-opacity="1.0" stroke-width="1.0"/>
        <circle fill-opacity="1.0" fill="#ff743e" r="10.252768" cx="60.0401" class="id_29" cy="-38.25224" stroke="#000000" stroke-opacity="1.0" stroke-width="1.0"/>
        <circle fill-opacity="1.0" fill="#68ad36" r="10.139322" cx="213.07281" class="id_30" cy="-19.386047" stroke="#000000" stroke-opacity="1.0" stroke-width="1.0"/>
        <circle fill-opacity="1.0" fill="#68ad36" r="10.139322" cx="41.908993" class="id_31" cy="47.48874" stroke="#000000" stroke-opacity="1.0" stroke-width="1.0"/>
        <circle fill-opacity="1.0" fill="#ff743e" r="10.139322" cx="28.210293" class="id_32" cy="-76.37597" stroke="#000000" stroke-opacity="1.0" stroke-width="1.0"/>
        <circle fill-opacity="1.0" fill="#68ad36" r="10.038283" cx="143.49138" class="id_33" cy="6.7394056" stroke="#000000" stroke-opacity="1.0" stroke-width="1.0"/>
        <circle fill-opacity="1.0" fill="#68ad36" r="10.0" cx="105.35157" class="id_34" cy="18.64095" stroke="#000000" stroke-opacity="1.0" stroke-width="1.0"/>
    </g>
    <g id="node-labels">
        <text font-size="15" x="-158.18274" y="7.6288223" fill="#000000" style="text-anchor: middle; dominant-baseline: central;" font-family="Arial" class="id_1">
            1
        </text>
        <text font-size="12" x="-97.382935" y="22.84823" fill="#000000" style="text-anchor: middle; dominant-baseline: central;" font-family="Arial" class="id_2">
            2
        </text>
        <text font-size="11" x="-17.308514" y="-0.04308939" fill="#000000" style="text-anchor: middle; dominant-baseline: central;" font-family="Arial" class="id_3">
            3
        </text>
        <text font-size="10" x="-117.10049" y="58.696304" fill="#000000" style="text-anchor: middle; dominant-baseline: central;" font-family="Arial" class="id_4">
            4
        </text>
        <text font-size="10" x="-280.42877" y="1.269112" fill="#000000" style="text-anchor: middle; dominant-baseline: central;" font-family="Arial" class="id_5">
            5
        </text>
        <text font-size="10" x="-318.2936" y="-52.630497" fill="#000000" style="text-anchor: middle; dominant-baseline: central;" font-family="Arial" class="id_6">
            6
        </text>
        <text font-size="10" x="-328.2725" y="-9.470766" fill="#000000" style="text-anchor: middle; dominant-baseline: central;" font-family="Arial" class="id_7">
            7
        </text>
        <text font-size="10" x="-113.58803" y="-25.584635" fill="#000000" style="text-anchor: middle; dominant-baseline: central;" font-family="Arial" class="id_8">
            8
        </text>
        <text font-size="10" x="12.20442" y="17.170048" fill="#000000" style="text-anchor: middle; dominant-baseline: central;" font-family="Arial" class="id_9">
            9
        </text>
        <text font-size="10" x="56.179348" y="103.85632" fill="#000000" style="text-anchor: middle; dominant-baseline: central;" font-family="Arial" class="id_10">
            10
        </text>
        <text font-size="10" x="-268.7254" y="-61.131218" fill="#000000" style="text-anchor: middle; dominant-baseline: central;" font-family="Arial" class="id_11">
            11
        </text>
        <text font-size="10" x="-275.45493" y="95.43182" fill="#000000" style="text-anchor: middle; dominant-baseline: central;" font-family="Arial" class="id_12">
            12
        </text>
        <text font-size="10" x="-186.07333" y="121.070656" fill="#000000" style="text-anchor: middle; dominant-baseline: central;" font-family="Arial" class="id_13">
            13
        </text>
        <text font-size="10" x="-45.45853" y="30.592855" fill="#000000" style="text-anchor: middle; dominant-baseline: central;" font-family="Arial" class="id_14">
            14
        </text>
        <text font-size="10" x="193.87703" y="98.02652" fill="#000000" style="text-anchor: middle; dominant-baseline: central;" font-family="Arial" class="id_15">
            15
        </text>
        <text font-size="10" x="225.27097" y="31.06125" fill="#000000" style="text-anchor: middle; dominant-baseline: central;" font-family="Arial" class="id_16">
            16
        </text>
        <text font-size="10" x="-418.21155" y="-53.872337" fill="#000000" style="text-anchor: middle; dominant-baseline: central;" font-family="Arial" class="id_17">
            17
        </text>
        <text font-size="10" x="-186.3911" y="-54.589222" fill="#000000" style="text-anchor: middle; dominant-baseline: central;" font-family="Arial" class="id_18">
            18
        </text>
        <text font-size="10" x="211.94508" y="-57.980797" fill="#000000" style="text-anchor: middle; dominant-baseline: central;" font-family="Arial" class="id_19">
            19
        </text>
        <text font-size="10" x="-36.066135" y="68.08609" fill="#000000" style="text-anchor: middle; dominant-baseline: central;" font-family="Arial" class="id_20">
            20
        </text>
        <text font-size="10" x="155.88632" y="115.20908" fill="#000000" style="text-anchor: middle; dominant-baseline: central;" font-family="Arial" class="id_21">
            21
        </text>
        <text font-size="10" x="-198.20424" y="63.015823" fill="#000000" style="text-anchor: middle; dominant-baseline: central;" font-family="Arial" class="id_22">
            22
        </text>
        <text font-size="10" x="222.32661" y="70.98662" fill="#000000" style="text-anchor: middle; dominant-baseline: central;" font-family="Arial" class="id_23">
            23
        </text>
        <text font-size="11" x="158.30067" y="-81.21141" fill="#000000" style="text-anchor: middle; dominant-baseline: central;" font-family="Arial" class="id_24">
            24
        </text>
        <text font-size="11" x="65.556114" y="-183.1371" fill="#000000" style="text-anchor: middle; dominant-baseline: central;" font-family="Arial" class="id_25">
            25
        </text>
        <text font-size="10" x="117.690094" y="-169.59404" fill="#000000" style="text-anchor: middle; dominant-baseline: central;" font-family="Arial" class="id_26">
            26
        </text>
        <text font-size="10" x="269.4847" y="-4.5127745" fill="#000000" style="text-anchor: middle; dominant-baseline: central;" font-family="Arial" class="id_27">
            27
        </text>
        <text font-size="10" x="82.65243" y="-89.65618" fill="#000000" style="text-anchor: middle; dominant-baseline: central;" font-family="Arial" class="id_28">
            28
        </text>
        <text font-size="10" x="60.0401" y="-36.424847" fill="#000000" style="text-anchor: middle; dominant-baseline: central;" font-family="Arial" class="id_29">
            29
        </text>
        <text font-size="10" x="213.07281" y="-17.557434" fill="#000000" style="text-anchor: middle; dominant-baseline: central;" font-family="Arial" class="id_30">
            30
        </text>
        <text font-size="10" x="41.908993" y="49.317352" fill="#000000" style="text-anchor: middle; dominant-baseline: central;" font-family="Arial" class="id_31">
            31
        </text>
        <text font-size="10" x="28.210293" y="-74.547356" fill="#000000" style="text-anchor: middle; dominant-baseline: central;" font-family="Arial" class="id_32">
            32
        </text>
        <text font-size="10" x="143.49138" y="8.568019" fill="#000000" style="text-anchor: middle; dominant-baseline: central;" font-family="Arial" class="id_33">
            33
        </text>
        <text font-size="10" x="105.35157" y="20.469563" fill="#000000" style="text-anchor: middle; dominant-baseline: central;" font-family="Arial" class="id_34">
            34
        </text>
    </g>
</svg>